<?xml version="1.0" standalone="no"?>
<!DOCTYPE svg PUBLIC "-//W3C//DTD SVG 20010904//EN"
 "http://www.w3.org/TR/2001/REC-SVG-20010904/DTD/svg10.dtd">
<svg version="1.0" xmlns="http://www.w3.org/2000/svg"
 width="342.000000pt" height="342.000000pt" viewBox="0 0 342.000000 342.000000"
 preserveAspectRatio="xMidYMid meet">
<metadata>
Created by potrace 1.11, written by Peter Selinger 2001-2013
</metadata>
<g transform="translate(0.000000,342.000000) scale(0.100000,-0.100000)"
fill="#000000" stroke="none">
<path d="M1707 2714 c-1 -1 -42 -5 -92 -9 -103 -7 -309 -38 -417 -61 -40 -8
-80 -17 -89 -19 -138 -29 -411 -129 -539 -197 -73 -39 -170 -97 -180 -108 -3
-3 -23 -18 -45 -35 -122 -90 -234 -223 -285 -337 -154 -349 47 -721 517 -957
207 -104 478 -191 718 -230 33 -6 76 -13 95 -16 35 -6 56 -9 160 -20 30 -4 71
-8 90 -11 19 -2 113 -7 208 -10 l172 -6 0 336 0 336 -264 -2 c-255 -1 -264 -1
-293 20 -20 14 -33 33 -36 54 -3 18 -6 203 -7 410 -1 413 1 424 57 447 18 7
122 12 283 13 l255 3 3 203 2 203 -155 -2 c-86 -2 -157 -4 -158 -5z"/>
<path d="M2228 2692 c-23 -27 -23 -29 -22 -295 0 -182 -3 -268 -10 -269 -6 -1
-121 -2 -256 -4 -135 -1 -255 -2 -267 -3 -12 -1 -31 -11 -43 -23 -19 -21 -20
-34 -20 -258 0 -224 1 -237 20 -258 24 -25 8 -24 320 -27 129 -1 240 -2 245
-3 7 -1 10 -88 10 -254 0 -139 3 -266 7 -282 14 -54 23 -55 279 -56 l236 0 22
24 c23 24 23 28 24 298 l2 273 274 0 274 1 23 28 c24 27 24 29 24 260 l0 233
-25 23 c-25 23 -26 23 -297 24 l-273 1 -2 273 c-1 270 -2 274 -24 298 l-22 24
-238 0 -237 0 -24 -28z"/>
<path d="M2961 1153 c-1 -247 -9 -234 102 -161 115 76 218 172 285 264 28 39
62 98 62 108 0 2 -101 4 -224 4 l-224 0 -1 -215z"/>
</g>
</svg>
