<svg version="1.1" id="Layer_1" xmlns="http://www.w3.org/2000/svg" xmlns:xlink="http://www.w3.org/1999/xlink" x="0px" y="0px"
	 width="100%" viewBox="0 0 192 144" enable-background="new 0 0 192 144" xml:space="preserve">
<path fill="#000000" opacity="1.000000" stroke="none" 
	d="
M24.468622,145.000000 
	C20.558180,141.060532 20.384611,136.283524 20.325953,131.392166 
	C20.132290,115.242653 19.546528,99.083961 20.654085,82.954926 
	C21.340181,72.963493 26.426523,65.326416 34.868782,60.132946 
	C37.514740,58.505219 38.979309,56.614697 39.785713,53.702469 
	C42.627480,43.439816 45.630394,33.221397 48.619427,23.000013 
	C51.814255,12.074891 60.185608,5.692350 71.422112,5.672210 
	C90.911575,5.637277 110.401215,5.633013 129.890640,5.676054 
	C141.357391,5.701376 149.648407,11.758759 152.946854,22.705322 
	C156.019073,32.901028 158.900604,43.156132 161.711319,53.427437 
	C162.497696,56.301109 163.735657,58.316811 166.454941,59.949116 
	C176.233261,65.818764 181.080750,74.833572 181.236313,86.109940 
	C181.459198,102.264832 181.234818,118.425453 181.337875,134.582748 
	C181.362869,138.498993 180.278229,141.770493 177.221130,144.727966 
	C169.645752,145.000000 162.291504,145.000000 154.307037,144.672333 
	C149.495499,139.713989 150.725281,134.021179 150.625137,128.606842 
	C150.491623,121.390251 150.528702,121.377022 143.567429,121.375404 
	C115.240166,121.368820 86.912903,121.370071 58.585640,121.369690 
	C51.292545,121.369591 51.296768,121.371719 51.289558,128.765442 
	C51.283916,134.551727 52.219391,140.589966 47.000000,145.000000 
	C39.645748,145.000000 32.291496,145.000000 24.468622,145.000000 
M148.295532,61.351295 
	C116.150291,61.357567 84.004959,61.318699 51.859863,61.390106 
	C36.897919,61.423340 26.468580,71.889084 26.309696,86.882286 
	C26.224987,94.876007 26.455889,102.875710 26.235500,110.864189 
	C26.131592,114.630547 27.524408,115.718033 31.170759,115.711136 
	C77.473114,115.623489 123.775764,115.628281 170.078125,115.719307 
	C173.740128,115.726501 175.162659,114.499420 175.089188,110.819527 
	C174.932968,102.994583 175.086990,95.164024 175.038910,87.336227 
	C174.940231,71.272636 165.399506,61.688793 148.295532,61.351295 
M70.499901,55.657558 
	C98.725525,55.657558 126.951157,55.657558 156.084778,55.657558 
	C152.749451,43.051926 150.344971,31.316277 145.526321,20.380470 
	C142.940277,14.511560 137.447647,11.480436 130.958237,11.435157 
	C110.968559,11.295682 90.976654,11.294851 70.987007,11.436062 
	C64.533485,11.481649 59.017838,14.370287 56.334038,20.246899 
	C51.286926,31.298374 49.173252,43.313225 45.362164,55.657265 
	C53.945896,55.657265 61.722897,55.657265 70.499901,55.657558 
M29.155857,121.438461 
	C26.731352,121.643822 26.314053,123.332634 26.309225,125.310196 
	C26.301550,128.454865 26.334105,131.599854 26.299690,134.744186 
	C26.266254,137.799026 27.611923,140.416183 30.624538,140.383530 
	C35.304676,140.332794 40.634300,142.816879 44.485470,137.928497 
	C44.767681,137.570282 44.877525,136.993073 44.885319,136.514709 
	C44.963020,131.746292 46.723835,126.203506 44.323620,122.457047 
	C42.422375,119.489433 36.900742,121.773857 33.009239,121.392868 
	C32.026154,121.296631 31.024588,121.389122 29.155857,121.438461 
M157.563095,138.820435 
	C162.264069,142.064346 167.376404,140.740601 172.353043,139.955902 
	C174.105438,139.679581 174.671967,137.864944 174.949768,136.095764 
	C177.108444,122.348976 176.230865,121.284264 162.562164,121.362267 
	C161.568085,121.367935 160.574127,121.392815 159.580063,121.402130 
	C157.599686,121.420692 156.369583,122.370583 156.396179,124.387573 
	C156.456757,128.983734 155.495087,133.637527 157.563095,138.820435 
z"/>
<path fill="#000000" opacity="1.000000" stroke="none" 
	d="
M40.522453,85.230194 
	C42.022308,78.045227 46.491478,74.761940 52.905495,75.771980 
	C57.927509,76.562820 61.476925,81.116211 61.251202,86.478310 
	C61.009640,92.216629 56.732803,96.290009 50.924286,96.313957 
	C44.726280,96.339508 41.154408,92.672951 40.522453,85.230194 
M46.424278,86.371872 
	C47.180206,89.306038 48.809071,91.132530 52.054230,90.156601 
	C54.481007,89.426788 55.162300,87.434593 54.812008,85.061188 
	C54.504570,82.978119 53.055336,81.768394 51.173531,81.620613 
	C48.469143,81.408234 47.064987,83.205116 46.424278,86.371872 
z"/>
<path fill="#000000" opacity="1.000000" stroke="none" 
	d="
M152.644775,75.768784 
	C159.141342,78.084381 161.790024,81.794281 161.206177,87.223282 
	C160.698502,91.943916 157.227631,95.585724 152.613663,96.238945 
	C146.368881,97.123055 141.201584,93.199257 140.666107,87.166534 
	C140.031372,80.015404 144.242737,75.847885 152.644775,75.768784 
M146.784332,84.319466 
	C145.679382,87.242332 146.964676,89.180153 149.563782,90.222092 
	C151.722015,91.087280 153.530914,90.027023 154.449707,88.065697 
	C155.328995,86.188728 155.263321,84.149422 153.473648,82.667862 
	C151.019333,80.636070 148.940720,81.411072 146.784332,84.319466 
z"/>
</svg>