<svg version="1.1" id="Layer_1" xmlns="http://www.w3.org/2000/svg" xmlns:xlink="http://www.w3.org/1999/xlink" x="0px" y="0px"
	 width="100%" viewBox="0 0 176 144" enable-background="new 0 0 176 144" xml:space="preserve">
<path fill="#000000" opacity="1.000000" stroke="none" 
	d="
M67.604904,21.037951 
	C82.235664,22.950981 90.543503,31.483456 94.400215,45.017410 
	C112.748779,27.133560 133.906586,24.180622 152.598541,36.576603 
	C169.470703,47.765755 175.820557,68.513557 168.217651,87.611168 
	C159.849060,108.632072 141.331940,116.271690 110.802727,110.961754 
	C112.713158,116.650612 114.192505,122.199287 115.017754,127.909241 
	C116.027893,134.898468 115.028908,136.234604 108.020355,136.236465 
	C79.701485,136.243942 51.382614,136.236572 23.063744,136.231277 
	C15.614234,136.229889 14.631405,135.548645 15.820450,128.259140 
	C18.562555,111.448524 27.417847,93.505203 49.176334,89.323593 
	C64.166000,86.442833 78.928207,86.494293 93.246140,92.630371 
	C96.810310,94.157837 100.233513,96.026192 102.756905,98.929901 
	C112.542664,110.190598 125.087440,111.302856 138.318268,108.156433 
	C156.234497,103.895775 167.650024,87.947258 166.993210,69.295532 
	C166.402039,52.507915 153.266907,37.687668 135.942978,34.261856 
	C114.537910,30.029003 100.056892,38.751740 93.619286,59.755814 
	C88.934746,75.040131 75.895615,83.445885 60.312073,81.227516 
	C46.974319,79.328842 36.089405,66.312210 35.753159,51.858963 
	C35.407387,36.996170 45.668472,24.335688 60.268036,21.554443 
	C62.560902,21.117647 64.818253,20.494261 67.604904,21.037951 
M35.505756,131.769073 
	C58.665859,131.763931 81.825996,131.776871 104.986046,131.740387 
	C110.495018,131.731705 111.537529,130.575912 110.486069,125.176971 
	C109.337143,119.277557 107.497284,113.582275 104.363495,108.369659 
	C100.297554,101.606529 94.886559,96.717514 86.049248,94.786224 
	C87.142609,98.491699 84.454521,102.300262 88.506912,104.412285 
	C95.186150,107.893326 96.268715,113.897293 96.280991,120.469986 
	C96.284233,122.206589 96.771782,124.364029 94.300430,125.009880 
	C93.011993,125.346581 91.513107,125.498428 90.540443,124.376907 
	C89.046921,122.654808 90.899300,121.451134 91.363914,119.967529 
	C92.474388,116.421570 91.866081,113.014114 89.257393,110.221611 
	C87.403221,108.236794 84.975029,107.436958 82.415237,108.413261 
	C78.858131,109.769936 78.062172,113.035179 77.302635,116.386612 
	C76.604401,119.467583 78.786865,121.580978 79.688606,124.399818 
	C77.096977,125.449432 74.516441,127.503471 73.164612,123.391098 
	C71.186775,117.374382 74.647263,108.088783 80.212433,104.586517 
	C84.018265,102.191437 82.585503,98.654770 82.478767,95.572212 
	C82.370293,92.439255 79.387650,92.681236 77.143578,92.315605 
	C70.364166,91.211021 63.590515,90.882622 56.791061,92.231270 
	C54.288685,92.727608 50.965225,91.944916 50.404984,95.555977 
	C49.876484,98.962425 49.599316,102.166061 54.020882,104.190544 
	C59.557289,106.725487 61.604156,112.798882 60.002060,118.652489 
	C58.543983,123.979881 53.975826,127.290840 48.025558,127.332947 
	C42.088783,127.374962 37.490730,124.095924 35.986771,118.747658 
	C34.331379,112.860893 36.326767,106.800171 41.819988,104.222862 
	C46.370728,102.087753 46.148701,99.154121 45.306728,95.367622 
	C33.029583,98.303604 19.621878,116.196121 20.159914,128.446594 
	C20.264931,130.837723 21.300621,131.730713 23.512638,131.729462 
	C27.178034,131.727402 30.843443,131.753387 35.505756,131.769073 
M47.127529,69.367325 
	C54.209869,76.151222 62.391533,79.638641 72.122597,76.441055 
	C81.659813,73.307159 87.678299,66.683960 90.044350,56.717628 
	C90.752975,53.732750 90.358025,52.442654 87.206291,51.944832 
	C82.731117,51.237968 78.471405,49.801544 75.052238,46.604893 
	C73.748398,45.385891 72.446663,45.412308 70.979767,46.282055 
	C62.613239,51.242718 53.539185,53.532425 43.835255,53.342411 
	C40.861000,53.284172 40.028252,54.596382 40.737915,57.413204 
	C41.819069,61.704556 43.861515,65.451447 47.127529,69.367325 
M49.528336,48.793831 
	C62.479874,48.328960 77.813820,38.672626 79.070709,29.843306 
	C66.241310,20.641462 48.814690,25.839560 42.318291,40.911869 
	C41.248795,43.393215 38.983822,46.340450 41.091938,48.785076 
	C42.980553,50.975163 46.096729,49.172058 49.528336,48.793831 
M51.067211,122.625526 
	C54.723015,120.614624 57.066761,117.781227 56.043983,113.377296 
	C54.976749,108.781952 50.377216,105.854492 46.334133,106.900772 
	C42.054920,108.008156 38.820038,112.401031 39.555439,116.106041 
	C40.527954,121.005638 45.226933,123.947540 51.067211,122.625526 
M87.175407,38.482922 
	C86.045578,36.930073 85.595131,34.802311 83.402153,34.019581 
	C81.357376,35.303581 80.726761,37.723850 79.141411,39.361237 
	C78.798782,39.715115 78.508896,40.124847 78.225647,40.530445 
	C77.608391,41.414276 77.517700,42.238968 78.148857,43.251083 
	C79.510384,45.434418 86.503517,48.675198 88.235466,47.393944 
	C91.796196,44.759815 88.186501,42.187550 87.719368,39.576939 
	C87.691116,39.419022 87.590370,39.274067 87.175407,38.482922 
z"/>
<path fill="#000000" opacity="1.000000" stroke="none" 
	d="
M119.348602,76.426361 
	C114.591240,76.347321 110.264061,76.306297 105.936882,76.305664 
	C102.597946,76.305183 100.330421,74.880196 100.385262,71.370636 
	C100.440491,67.836258 102.782974,66.581406 106.115227,66.644524 
	C109.941742,66.717018 113.774033,66.547531 117.598091,66.666718 
	C120.632996,66.761307 121.776146,65.409378 121.693848,62.472332 
	C121.586678,58.647579 121.674187,54.816959 121.700127,50.989014 
	C121.723351,47.560799 123.376823,45.630943 126.897095,45.760761 
	C130.311584,45.886677 131.355667,48.119308 131.339432,51.173344 
	C131.320847,54.668427 131.582138,58.183716 131.289474,61.653767 
	C130.943359,65.757713 132.715271,66.963882 136.527023,66.691673 
	C139.838394,66.455200 143.181458,66.694336 146.509567,66.651260 
	C149.661545,66.610474 151.844711,68.025162 151.949387,71.186874 
	C152.061722,74.580612 149.898071,76.271576 146.520432,76.297974 
	C142.858994,76.326599 139.195786,76.388161 135.536179,76.306992 
	C132.625671,76.242432 131.242050,77.406059 131.331451,80.437279 
	C131.444244,84.261612 131.343307,88.092499 131.321091,91.920479 
	C131.302994,95.040115 129.920746,97.119125 126.641121,97.182526 
	C123.360184,97.245949 121.841110,95.185791 121.742455,92.102638 
	C121.625389,88.444321 121.728661,84.779411 121.650032,81.119217 
	C121.612541,79.374237 122.159798,77.313751 119.348602,76.426361 
z"/>
</svg>