<svg version="1.1" id="Layer_1" xmlns="http://www.w3.org/2000/svg" xmlns:xlink="http://www.w3.org/1999/xlink" x="0px" y="0px"
	 width="100%" viewBox="0 0 144 160" enable-background="new 0 0 144 160" xml:space="preserve">
<path fill="#000000" opacity="1.000000" stroke="none" 
	d="
M6.468657,161.000000 
	C1.696100,156.068069 2.186980,150.136200 2.927913,144.372299 
	C6.348010,117.766457 30.073418,96.712692 56.929867,96.747673 
	C70.384682,96.765198 83.883698,95.625046 97.303986,97.647537 
	C122.172348,101.395317 142.442963,124.323967 143.365387,149.542999 
	C143.514450,153.618240 142.387711,157.043579 140.101532,160.647339 
	C95.645775,161.000000 51.291542,161.000000 6.468657,161.000000 
M92.454735,143.101013 
	C93.784554,146.607452 91.455490,147.173157 88.918579,147.293182 
	C86.082169,147.427399 82.853142,147.764832 82.717773,143.524628 
	C82.579613,139.196793 82.640526,134.861511 82.667595,130.529816 
	C82.697205,125.790421 84.742241,121.490105 88.864113,119.853409 
	C94.972900,117.427742 94.907478,113.066765 94.880280,107.923164 
	C94.859962,104.080399 93.434929,102.368019 89.666435,102.376442 
	C78.335770,102.401756 67.005013,102.380699 55.674347,102.404205 
	C53.973328,102.407730 52.329376,102.654861 51.432907,104.428871 
	C49.262634,108.723587 51.582111,116.430763 55.786327,118.866051 
	C61.757256,122.324699 64.507042,128.888580 62.773209,135.544128 
	C60.869675,142.851105 55.338882,147.251129 47.945274,147.340485 
	C41.220409,147.421753 35.316776,143.123428 33.264141,136.651382 
	C31.041933,129.644669 33.377529,123.063026 39.452370,119.213158 
	C45.154366,115.599564 46.287632,111.822319 43.710438,105.020676 
	C24.994911,109.491615 9.236108,127.874825 8.342817,150.701508 
	C8.162886,155.299408 10.932066,156.680725 15.081157,156.676758 
	C53.573048,156.639877 92.065033,156.628296 130.556854,156.691559 
	C135.243958,156.699265 137.204865,154.702011 137.046875,150.038330 
	C136.464844,132.855743 128.404938,119.948082 114.483345,110.440880 
	C110.675133,107.840218 106.604408,105.564415 101.881889,104.941864 
	C99.655418,112.928444 100.466873,115.352676 106.673210,119.432495 
	C110.392265,121.877266 112.677277,125.364464 113.073204,129.684052 
	C113.482224,134.146408 113.231789,138.671219 113.225327,143.168655 
	C113.222755,144.960281 112.647079,146.608566 110.717522,147.008667 
	C108.456459,147.477509 106.051758,147.893250 103.960571,146.457748 
	C102.655922,145.562180 102.346695,143.645706 103.586960,143.060898 
	C109.529671,140.258820 107.017303,135.195602 106.933624,130.974945 
	C106.839348,126.219604 103.364433,122.952766 98.760315,122.428200 
	C94.378586,121.928970 90.155663,124.727280 88.763680,129.052460 
	C86.874069,134.923874 88.188919,140.550217 92.454735,143.101013 
M57.042904,132.358932 
	C56.496155,125.935341 53.201599,122.406433 47.741241,122.395615 
	C42.739418,122.385704 38.660503,126.304977 38.342903,131.426117 
	C38.032757,136.427124 41.674435,140.882111 46.639652,141.575775 
	C51.611580,142.270386 55.560555,139.061829 57.042904,132.358932 
z"/>
<path fill="#000000" opacity="1.000000" stroke="none" 
	d="
M113.265388,46.892441 
	C112.633247,68.712860 97.806366,85.107384 77.183311,87.262466 
	C56.333813,89.441223 37.743111,76.812813 33.612087,55.963913 
	C29.069178,33.036263 36.054970,12.753267 57.871262,4.440713 
	C85.663605,-6.148868 113.181793,13.109044 113.269600,42.917587 
	C113.273033,44.083626 113.269173,45.249691 113.265388,46.892441 
M107.168747,50.703331 
	C107.308830,48.219986 107.359596,45.727642 107.608688,43.255280 
	C108.047760,38.897102 106.664665,36.768257 101.803329,37.269512 
	C95.766159,37.892006 90.210106,36.049698 85.590164,32.127556 
	C83.054398,29.974794 81.479523,30.424583 79.377304,32.676777 
	C74.820038,37.559158 69.081497,40.461693 62.527279,41.746075 
	C56.257126,42.974796 49.913635,42.373016 43.618782,42.271458 
	C39.458450,42.204334 38.155518,43.584030 38.218060,47.709858 
	C38.479736,64.973007 52.588715,80.105606 70.145157,81.619324 
	C87.967926,83.156006 104.019936,70.049301 107.168747,50.703331 
M50.394825,15.892210 
	C45.040218,20.224165 41.819187,25.905018 39.772350,32.389732 
	C38.795284,35.485245 39.737633,36.752987 42.960094,36.667351 
	C46.611778,36.570309 50.268211,36.658264 53.922569,36.654716 
	C68.293564,36.640759 83.529411,25.349590 88.028542,11.383793 
	C77.242264,4.729006 63.041061,6.287007 50.394825,15.892210 
M95.789459,30.857969 
	C97.083969,31.120468 98.369141,31.540335 99.674637,31.617865 
	C104.959335,31.931717 105.784615,30.719124 103.389557,26.011505 
	C101.272545,21.850414 98.616196,18.108528 94.451782,15.781757 
	C85.117828,23.570021 85.261757,26.359594 95.789459,30.857969 
z"/>
</svg>