<svg version="1.1" id="Layer_1" xmlns="http://www.w3.org/2000/svg" xmlns:xlink="http://www.w3.org/1999/xlink" x="0px" y="0px"
	 width="100%" viewBox="0 0 165 172" enable-background="new 0 0 165 172" xml:space="preserve">
<path fill="#FFFFFF" opacity="1.000000" stroke="none" 
	d="
M88.000000,173.000000 
	C58.666672,173.000000 29.833340,173.000000 1.000008,173.000000 
	C1.000005,115.666679 1.000005,58.333355 1.000003,1.000023 
	C55.999985,1.000015 110.999969,1.000015 165.999969,1.000008 
	C165.999969,58.333309 165.999969,115.666618 165.999985,172.999969 
	C140.166672,173.000000 114.333336,173.000000 88.000000,173.000000 
M95.448395,129.061447 
	C99.109612,122.558388 105.102982,122.415581 111.548264,122.823830 
	C117.024765,123.170708 122.546440,123.046211 128.036880,122.836212 
	C131.098236,122.719116 133.037109,123.484673 134.920547,126.214333 
	C138.594635,131.539154 144.979752,133.221542 150.811050,131.206909 
	C156.763214,129.150528 160.789841,123.757637 160.886017,117.713402 
	C160.975662,112.081543 157.137405,106.505699 151.549744,104.168030 
	C150.485199,103.722672 149.405029,103.314636 148.080460,102.789650 
	C148.080460,91.287674 147.980179,79.814140 148.164642,68.345177 
	C148.201767,66.036522 149.671127,63.769676 149.833160,61.438580 
	C149.974762,59.401405 149.855713,56.664635 148.640244,55.423153 
	C147.606766,54.367554 144.100662,54.161457 143.036652,55.102978 
	C141.692627,56.292271 141.141632,59.065983 141.279694,61.085766 
	C141.504669,64.376938 143.069412,67.594742 143.175217,70.872345 
	C143.460022,79.694031 143.136032,88.534058 143.336731,97.360374 
	C143.422363,101.125969 143.244476,104.037682 138.777344,105.332253 
	C136.961578,105.858459 135.781342,108.325272 134.094711,109.627792 
	C132.695114,110.708649 130.998047,112.063438 129.396408,112.112602 
	C121.239693,112.362984 113.069328,112.129974 104.907761,112.281708 
	C102.048996,112.334854 100.221687,111.717995 98.368797,109.143677 
	C93.125801,101.859299 82.349411,100.306969 77.249474,107.141220 
	C73.023689,112.804070 68.334045,112.186905 63.053658,112.220329 
	C57.388794,112.256172 51.719429,112.099884 46.060089,112.280266 
	C43.032452,112.376762 41.070347,111.689735 39.140541,108.935471 
	C34.717918,102.623405 26.578835,101.326309 20.093220,105.242058 
	C14.040064,108.896698 11.649294,116.831284 14.581852,123.533401 
	C19.010080,133.653748 32.595932,134.896790 39.639713,125.937767 
	C40.690048,124.601845 42.513912,123.077072 44.023117,123.030174 
	C52.845470,122.756096 61.682529,122.807472 70.509575,122.991394 
	C71.839394,123.019104 73.568886,123.995682 74.389511,125.080833 
	C79.937325,132.417099 86.179291,133.868332 95.448395,129.061447 
M120.527145,71.101723 
	C115.942123,72.715630 111.357101,74.329536 106.772072,75.943451 
	C106.686172,76.547318 106.600266,77.151192 106.514366,77.755058 
	C117.375496,82.243317 128.236618,86.731583 139.598450,91.426750 
	C139.598450,82.117386 139.598450,73.677094 139.598450,65.280083 
	C138.801788,65.205330 138.434662,65.062698 138.149521,65.160095 
	C132.530807,67.079201 126.921616,69.026169 120.527145,71.101723 
z"/>
<path fill="#1E3855" opacity="1.000000" stroke="none" 
	d="
M95.173035,129.320129 
	C86.179291,133.868332 79.937325,132.417099 74.389511,125.080833 
	C73.568886,123.995682 71.839394,123.019104 70.509575,122.991394 
	C61.682529,122.807472 52.845470,122.756096 44.023117,123.030174 
	C42.513912,123.077072 40.690048,124.601845 39.639713,125.937767 
	C32.595932,134.896790 19.010080,133.653748 14.581852,123.533401 
	C11.649294,116.831284 14.040064,108.896698 20.093220,105.242058 
	C26.578835,101.326309 34.717918,102.623405 39.140541,108.935471 
	C41.070347,111.689735 43.032452,112.376762 46.060089,112.280266 
	C51.719429,112.099884 57.388794,112.256172 63.053658,112.220329 
	C68.334045,112.186905 73.023689,112.804070 77.249474,107.141220 
	C82.349411,100.306969 93.125801,101.859299 98.368797,109.143677 
	C100.221687,111.717995 102.048996,112.334854 104.907761,112.281708 
	C113.069328,112.129974 121.239693,112.362984 129.396408,112.112602 
	C130.998047,112.063438 132.695114,110.708649 134.094711,109.627792 
	C135.781342,108.325272 136.961578,105.858459 138.777344,105.332253 
	C143.244476,104.037682 143.422363,101.125969 143.336731,97.360374 
	C143.136032,88.534058 143.460022,79.694031 143.175217,70.872345 
	C143.069412,67.594742 141.504669,64.376938 141.279694,61.085766 
	C141.141632,59.065983 141.692627,56.292271 143.036652,55.102978 
	C144.100662,54.161457 147.606766,54.367554 148.640244,55.423153 
	C149.855713,56.664635 149.974762,59.401405 149.833160,61.438580 
	C149.671127,63.769676 148.201767,66.036522 148.164642,68.345177 
	C147.980179,79.814140 148.080460,91.287674 148.080460,102.789650 
	C149.405029,103.314636 150.485199,103.722672 151.549744,104.168030 
	C157.137405,106.505699 160.975662,112.081543 160.886017,117.713402 
	C160.789841,123.757637 156.763214,129.150528 150.811050,131.206909 
	C144.979752,133.221542 138.594635,131.539154 134.920547,126.214333 
	C133.037109,123.484673 131.098236,122.719116 128.036880,122.836212 
	C122.546440,123.046211 117.024765,123.170708 111.548264,122.823830 
	C105.102982,122.415581 99.109612,122.558388 95.173035,129.320129 
z"/>
<path fill="#1D3755" opacity="1.000000" stroke="none" 
	d="
M120.918816,71.034592 
	C126.921616,69.026169 132.530807,67.079201 138.149521,65.160095 
	C138.434662,65.062698 138.801788,65.205330 139.598450,65.280083 
	C139.598450,73.677094 139.598450,82.117386 139.598450,91.426750 
	C128.236618,86.731583 117.375496,82.243317 106.514366,77.755058 
	C106.600266,77.151192 106.686172,76.547318 106.772072,75.943451 
	C111.357101,74.329536 115.942123,72.715630 120.918816,71.034592 
z"/>
</svg>