<svg version="1.1" id="Layer_1" xmlns="http://www.w3.org/2000/svg" xmlns:xlink="http://www.w3.org/1999/xlink" x="0px" y="0px"
	 width="100%" viewBox="0 0 147 177" enable-background="new 0 0 147 177" xml:space="preserve">
<path fill="#FCFDFD" opacity="1.000000" stroke="none" 
	d="
M148.000000,70.000000 
	C148.000000,106.333336 148.000000,142.166672 148.000000,178.000000 
	C99.000000,178.000000 50.000000,178.000000 1.000000,178.000000 
	C1.000000,119.000000 1.000000,60.000000 1.000000,1.000000 
	C50.000000,1.000000 99.000000,1.000000 148.000000,1.000000 
	C148.000000,23.833334 148.000000,46.666668 148.000000,70.000000 
M91.597931,21.199705 
	C89.885406,11.209485 82.703270,4.668913 73.817810,5.007839 
	C64.063675,5.379900 57.802155,12.582130 56.737217,25.002134 
	C48.472202,25.002134 40.168510,24.992960 31.864849,25.004354 
	C20.354748,25.020151 14.553740,30.689125 14.545697,42.060871 
	C14.520727,77.367500 14.520446,112.674164 14.546004,147.980789 
	C14.554078,159.133667 20.370386,164.983505 31.406878,164.991180 
	C60.051876,165.011108 88.696907,165.013153 117.341896,164.990005 
	C128.175797,164.981247 134.122101,159.142670 134.132904,148.404770 
	C134.168808,112.765083 134.170456,77.125320 134.131546,41.485634 
	C134.120132,31.018791 128.138184,25.068588 117.731888,25.010565 
	C110.071251,24.967852 102.408981,24.926287 94.750053,25.048122 
	C92.471291,25.084372 91.231865,24.586647 91.597931,21.199705 
z"/>
<path fill="#173251" opacity="1.000000" stroke="none" 
	d="
M91.626823,21.636539 
	C91.231865,24.586647 92.471291,25.084372 94.750053,25.048122 
	C102.408981,24.926287 110.071251,24.967852 117.731888,25.010565 
	C128.138184,25.068588 134.120132,31.018791 134.131546,41.485634 
	C134.170456,77.125320 134.168808,112.765083 134.132904,148.404770 
	C134.122101,159.142670 128.175797,164.981247 117.341896,164.990005 
	C88.696907,165.013153 60.051876,165.011108 31.406878,164.991180 
	C20.370386,164.983505 14.554078,159.133667 14.546004,147.980789 
	C14.520446,112.674164 14.520727,77.367500 14.545697,42.060871 
	C14.553740,30.689125 20.354748,25.020151 31.864849,25.004354 
	C40.168510,24.992960 48.472202,25.002134 56.737217,25.002134 
	C57.802155,12.582130 64.063675,5.379900 73.817810,5.007839 
	C82.703270,4.668913 89.885406,11.209485 91.626823,21.636539 
M124.539101,94.500183 
	C124.539055,77.002251 124.524727,59.504299 124.551323,42.006409 
	C124.556488,38.607082 124.182190,35.314449 119.935349,35.081451 
	C114.826782,34.801174 109.691086,35.015163 104.396629,35.015163 
	C104.283974,36.075146 104.175560,36.701939 104.156815,37.331402 
	C103.928650,44.993519 103.932083,44.995415 96.234459,44.996159 
	C82.069466,44.997520 67.903389,44.888386 53.739845,45.031635 
	C42.903931,45.141224 44.621178,44.002598 44.424988,36.129124 
	C44.417789,35.840302 44.121861,35.558674 43.803612,34.996647 
	C39.808372,34.996647 35.658276,34.984818 31.508270,34.999432 
	C25.348444,35.021122 24.155493,36.154526 24.152763,42.226780 
	C24.136963,77.389275 24.137548,112.551781 24.152180,147.714279 
	C24.154716,153.809280 25.358820,154.996124 31.449341,154.998474 
	C59.945961,155.009430 88.442589,155.007736 116.939217,155.000092 
	C123.388504,154.998352 124.523071,153.897568 124.531357,147.494019 
	C124.553780,130.162766 124.538979,112.831474 124.539101,94.500183 
M79.547157,16.880919 
	C73.577377,13.394736 67.228874,15.358190 67.018135,21.221180 
	C66.924591,23.823597 68.741280,27.257092 70.803574,28.986355 
	C73.532898,31.274935 77.228340,30.515747 79.801445,27.801561 
	C82.874451,24.560074 82.783768,20.970409 79.547157,16.880919 
z"/>
<path fill="#FCFCFD" opacity="1.000000" stroke="none" 
	d="
M124.539024,95.000191 
	C124.538979,112.831474 124.553780,130.162766 124.531357,147.494019 
	C124.523071,153.897568 123.388504,154.998352 116.939217,155.000092 
	C88.442589,155.007736 59.945961,155.009430 31.449341,154.998474 
	C25.358820,154.996124 24.154716,153.809280 24.152180,147.714279 
	C24.137548,112.551781 24.136963,77.389275 24.152763,42.226780 
	C24.155493,36.154526 25.348444,35.021122 31.508270,34.999432 
	C35.658276,34.984818 39.808372,34.996647 43.803612,34.996647 
	C44.121861,35.558674 44.417789,35.840302 44.424988,36.129124 
	C44.621178,44.002598 42.903931,45.141224 53.739845,45.031635 
	C67.903389,44.888386 82.069466,44.997520 96.234459,44.996159 
	C103.932083,44.995415 103.928650,44.993519 104.156815,37.331402 
	C104.175560,36.701939 104.283974,36.075146 104.396629,35.015163 
	C109.691086,35.015163 114.826782,34.801174 119.935349,35.081451 
	C124.182190,35.314449 124.556488,38.607082 124.551323,42.006409 
	C124.524727,59.504299 124.539055,77.002251 124.539024,95.000191 
M64.547729,131.304520 
	C64.358498,134.149292 65.804497,135.116470 68.502090,135.022217 
	C71.996498,134.900116 75.514374,134.784409 78.992874,135.049667 
	C82.866211,135.345047 84.448097,134.037186 84.210205,129.994629 
	C83.921066,125.081337 84.141518,120.138069 84.141518,114.993958 
	C86.300385,114.993958 87.787010,114.996895 89.273621,114.993500 
	C104.836029,114.957954 104.749992,114.960632 104.210167,99.227394 
	C104.096542,95.915863 102.887962,94.854393 99.723442,94.960625 
	C94.631744,95.131554 89.530106,95.006508 84.141655,95.006508 
	C84.141655,91.065567 84.163765,87.760063 84.137581,84.454948 
	C84.052727,73.744682 85.363617,75.102715 74.953857,75.008163 
	C73.287956,74.993034 71.601616,75.172447 69.959732,74.973289 
	C65.881546,74.478607 64.200356,75.984207 64.473663,80.244408 
	C64.780037,85.019974 64.544052,89.830330 64.544052,95.006943 
	C58.920685,95.006943 53.785419,95.116623 48.657860,94.965218 
	C45.650333,94.876411 44.411793,96.028748 44.514843,99.041100 
	C44.645775,102.868500 44.708420,106.712791 44.497738,110.533104 
	C44.300270,114.113831 45.846302,115.189362 49.234219,115.047028 
	C54.179924,114.839241 59.140839,114.993637 64.544128,114.993637 
	C64.544128,120.404190 64.544128,125.369827 64.547729,131.304520 
z"/>
<path fill="#F8F9FA" opacity="1.000000" stroke="none" 
	d="
M79.831261,17.153990 
	C82.783768,20.970409 82.874451,24.560074 79.801445,27.801561 
	C77.228340,30.515747 73.532898,31.274935 70.803574,28.986355 
	C68.741280,27.257092 66.924591,23.823597 67.018135,21.221180 
	C67.228874,15.358190 73.577377,13.394736 79.831261,17.153990 
z"/>
<path fill="#153150" opacity="1.000000" stroke="none" 
	d="
M64.545929,130.819992 
	C64.544128,125.369827 64.544128,120.404190 64.544128,114.993637 
	C59.140839,114.993637 54.179924,114.839241 49.234219,115.047028 
	C45.846302,115.189362 44.300270,114.113831 44.497738,110.533104 
	C44.708420,106.712791 44.645775,102.868500 44.514843,99.041100 
	C44.411793,96.028748 45.650333,94.876411 48.657860,94.965218 
	C53.785419,95.116623 58.920685,95.006943 64.544052,95.006943 
	C64.544052,89.830330 64.780037,85.019974 64.473663,80.244408 
	C64.200356,75.984207 65.881546,74.478607 69.959732,74.973289 
	C71.601616,75.172447 73.287956,74.993034 74.953857,75.008163 
	C85.363617,75.102715 84.052727,73.744682 84.137581,84.454948 
	C84.163765,87.760063 84.141655,91.065567 84.141655,95.006508 
	C89.530106,95.006508 94.631744,95.131554 99.723442,94.960625 
	C102.887962,94.854393 104.096542,95.915863 104.210167,99.227394 
	C104.749992,114.960632 104.836029,114.957954 89.273621,114.993500 
	C87.787010,114.996895 86.300385,114.993958 84.141518,114.993958 
	C84.141518,120.138069 83.921066,125.081337 84.210205,129.994629 
	C84.448097,134.037186 82.866211,135.345047 78.992874,135.049667 
	C75.514374,134.784409 71.996498,134.900116 68.502090,135.022217 
	C65.804497,135.116470 64.358498,134.149292 64.545929,130.819992 
z"/>
</svg>