<svg version="1.1" id="Layer_1" xmlns="http://www.w3.org/2000/svg" xmlns:xlink="http://www.w3.org/1999/xlink" x="0px" y="0px"
	 width="100%" viewBox="0 0 224 176" enable-background="new 0 0 224 176" xml:space="preserve">
<path fill="#000000" opacity="1.000000" stroke="none" 
	d="
M40.285793,149.555725 
	C46.646660,142.041183 51.289234,134.069702 53.245693,124.671898 
	C53.681309,122.579407 53.651684,120.829483 52.205952,119.084938 
	C28.070461,89.961349 37.672600,49.815525 71.017395,30.810760 
	C105.062248,11.407007 139.596603,12.391500 172.481522,34.035114 
	C189.182144,45.026829 198.978882,61.185242 199.728806,81.655380 
	C200.248825,95.850067 195.396454,108.551430 186.252853,119.399986 
	C172.135880,136.149307 153.766525,144.752304 132.213226,147.470886 
	C117.756523,149.294342 103.661530,148.276382 89.821838,143.875732 
	C87.187386,143.038040 85.381859,144.019226 83.354942,145.298111 
	C73.407318,151.574554 62.883141,156.422348 51.061298,157.903992 
	C49.250267,158.130966 47.416405,158.341965 45.597569,158.309555 
	C39.869987,158.207489 38.062107,155.390930 40.285793,149.555725 
M175.970688,59.539261 
	C174.714035,57.986958 173.499237,56.398521 172.194504,54.887737 
	C150.963364,30.303776 105.499184,26.776058 77.492485,45.269844 
	C52.114662,62.027691 47.718235,91.392731 66.059135,110.773300 
	C69.480789,114.388901 70.274391,119.229034 69.577332,124.348183 
	C69.099678,127.856018 67.390793,131.204926 67.805962,135.184265 
	C71.522079,134.389450 74.157547,132.292236 76.835136,130.415726 
	C81.522583,127.130676 86.486794,126.026649 91.932648,127.969345 
	C98.076904,130.161194 104.363976,131.661972 110.871956,132.127319 
	C130.552856,133.534607 149.146942,130.303802 165.063202,117.866959 
	C185.183578,102.145050 189.328629,80.053299 175.970688,59.539261 
z"/>
<path fill="#000000" opacity="1.000000" stroke="none" 
	d="
M129.697861,108.235382 
	C128.863754,111.916611 126.742378,113.173172 123.485939,113.359459 
	C109.500076,114.159515 108.652565,113.577477 108.867294,99.535545 
	C108.939407,94.820305 107.657661,92.598244 102.742844,93.347122 
	C102.093071,93.446129 101.413651,93.349190 100.747948,93.345184 
	C89.397888,93.276924 85.715538,88.073387 89.082832,76.847603 
	C89.901062,74.119835 91.746208,72.720718 94.601425,72.699509 
	C97.929810,72.674797 101.262466,72.560310 104.585548,72.687210 
	C107.534241,72.799820 108.884888,71.675224 108.775276,68.629799 
	C108.655663,65.306442 108.712181,61.971851 108.821747,58.646439 
	C108.945160,54.900314 110.852882,52.788109 114.723862,52.687508 
	C114.890228,52.683186 115.056862,52.685089 115.222961,52.676300 
	C129.330078,51.929832 130.096634,52.467922 129.885406,66.541458 
	C129.812500,71.399071 131.379013,73.332291 136.135727,72.666008 
	C136.625244,72.597443 137.132996,72.658798 137.632278,72.659943 
	C149.266769,72.686691 152.368332,76.730934 149.754471,88.443230 
	C149.036865,91.658699 147.056595,93.289902 143.763687,93.312851 
	C140.601715,93.334885 137.434341,93.464439 134.279068,93.325668 
	C130.989014,93.180969 129.838593,94.701172 129.926468,97.827042 
	C130.019867,101.149117 129.837906,104.478935 129.697861,108.235382 
z"/>
</svg>