<svg version="1.1" id="Layer_1" xmlns="http://www.w3.org/2000/svg" xmlns:xlink="http://www.w3.org/1999/xlink" x="0px" y="0px"
	 width="100%" viewBox="0 0 240 192" enable-background="new 0 0 240 192" xml:space="preserve">
<path fill="#000000" opacity="1.000000" stroke="none" 
	d="
M180.282852,163.808060 
	C179.186295,171.072861 176.831161,173.307877 170.141891,173.316956 
	C136.508438,173.362671 102.874863,173.365814 69.241425,173.317017 
	C62.169582,173.306763 58.743305,169.221588 59.443314,162.027435 
	C61.769955,138.116043 78.745224,122.678688 102.759850,122.651985 
	C114.415016,122.639023 126.070312,122.619858 137.725372,122.659172 
	C161.427353,122.739136 179.057388,139.621338 180.282852,163.808060 
M134.499908,162.649353 
	C144.321350,162.649277 154.146576,162.488129 163.962555,162.719559 
	C168.617172,162.829300 169.335815,160.874496 168.335388,156.920685 
	C165.019897,143.817444 152.537827,133.632385 138.798584,133.398911 
	C126.151016,133.183990 113.493973,133.198639 100.846176,133.412262 
	C86.624161,133.652466 74.776566,143.559158 71.171516,157.303467 
	C69.993546,161.794495 71.307983,162.748932 75.570656,162.713806 
	C94.879265,162.554657 114.189957,162.646927 134.499908,162.649353 
z"/>
<path fill="#000000" opacity="1.000000" stroke="none" 
	d="
M118.141632,52.675491 
	C134.761230,52.662075 146.701797,62.285633 149.838623,77.848457 
	C152.517731,91.140396 144.544464,106.019478 131.674133,111.061356 
	C119.580910,115.798782 108.224075,113.974480 98.855827,104.971123 
	C89.516106,95.995163 86.869362,84.739754 91.383446,72.483215 
	C95.820953,60.434574 104.925247,53.981285 118.141632,52.675491 
M119.575462,102.634560 
	C122.144554,102.819359 124.516983,101.982109 126.831848,101.076393 
	C134.244568,98.176117 140.265839,88.951469 139.478256,81.849167 
	C138.441879,72.503014 131.562912,65.192902 122.250435,63.541576 
	C114.935677,62.244495 106.206718,67.059143 102.556046,74.404442 
	C98.622673,82.318565 100.226646,91.027481 106.683197,97.189537 
	C110.084183,100.435394 114.223198,101.944939 119.575462,102.634560 
z"/>
<path fill="#000000" opacity="1.000000" stroke="none" 
	d="
M39.455696,39.685524 
	C39.402008,27.869110 44.172401,19.322649 54.824104,14.752648 
	C64.821785,10.463248 74.123833,12.355353 82.160362,19.458778 
	C90.518272,26.846275 92.660446,39.068001 87.810402,49.160080 
	C83.134964,58.888832 71.609764,64.899765 60.888012,63.201378 
	C49.510803,61.399162 41.056160,52.263374 39.455696,39.685524 
M79.078461,39.869354 
	C80.301132,28.489489 69.682411,21.804731 62.086700,23.712404 
	C54.919533,25.512447 49.811707,32.049950 50.375504,38.974518 
	C50.936821,45.868660 56.638081,51.778740 63.496090,52.575676 
	C70.470406,53.386127 76.750160,48.513943 79.078461,39.869354 
z"/>
<path fill="#000000" opacity="1.000000" stroke="none" 
	d="
M175.530457,63.109657 
	C164.381119,60.747887 157.629745,54.017506 155.158661,43.636063 
	C152.819122,33.807262 155.873230,25.219475 163.589813,18.463217 
	C171.535355,11.506505 184.090332,10.663074 193.412735,16.484278 
	C202.247284,22.000847 207.092972,33.507217 204.709457,43.308960 
	C201.959335,54.618176 192.758163,62.730408 181.948563,63.296307 
	C179.959457,63.400440 177.956436,63.238575 175.530457,63.109657 
M174.293488,24.608761 
	C171.838409,25.754251 169.755112,27.359238 168.131607,29.546886 
	C164.546143,34.378277 164.373810,40.976055 167.715179,45.918903 
	C171.160980,51.016239 177.476074,53.581490 182.853302,52.068150 
	C191.021027,49.769466 196.021790,42.328541 194.129211,35.290119 
	C191.686340,26.205166 184.151871,21.899269 174.293488,24.608761 
z"/>
<path fill="#000000" opacity="1.000000" stroke="none" 
	d="
M172.016251,72.660187 
	C181.447601,72.893494 190.535431,71.556351 199.076569,75.585701 
	C211.964600,81.665756 218.994934,91.799210 220.240982,105.940193 
	C220.562454,109.588425 219.675873,112.831932 215.303650,113.193626 
	C210.957611,113.553139 209.382141,110.549210 209.208466,106.878227 
	C208.510666,92.128593 196.642273,82.663254 181.755066,83.340424 
	C176.932068,83.559807 172.090607,83.377426 167.257599,83.372162 
	C158.636871,83.362755 157.951279,82.507881 159.295547,72.660492 
	C163.293335,72.660492 167.406693,72.660492 172.016251,72.660187 
z"/>
<path fill="#000000" opacity="1.000000" stroke="none" 
	d="
M63.024887,83.380348 
	C58.561924,83.584564 54.582626,83.028740 50.616306,83.905930 
	C38.810280,86.516914 31.633625,94.212402 30.444742,106.161118 
	C30.035975,110.269363 29.116297,113.747879 24.179472,113.150795 
	C19.280807,112.558319 19.171179,108.808052 19.561871,104.822357 
	C21.387676,86.196220 35.944511,72.760223 54.580410,72.673424 
	C63.185394,72.633347 71.790718,72.666603 80.484787,72.666603 
	C81.589668,76.053009 80.306587,78.749893 80.040100,81.449905 
	C79.849159,83.384407 77.971817,83.322746 76.482552,83.338516 
	C72.161819,83.384315 67.840454,83.370552 63.024887,83.380348 
z"/>
</svg>