<svg version="1.1" id="Layer_1" xmlns="http://www.w3.org/2000/svg" xmlns:xlink="http://www.w3.org/1999/xlink" x="0px" y="0px"
	 width="100%" viewBox="0 0 199 161" enable-background="new 0 0 199 161" xml:space="preserve">
<path fill="#FEFEFE" opacity="1.000000" stroke="none" 
	d="
M200.000000,63.000000 
	C200.000000,96.333336 200.000000,129.166672 200.000000,162.000000 
	C133.666672,162.000000 67.333336,162.000000 1.000000,162.000000 
	C1.000000,108.333336 1.000000,54.666668 1.000000,1.000000 
	C67.333336,1.000000 133.666672,1.000000 200.000000,1.000000 
	C200.000000,21.500000 200.000000,42.000000 200.000000,63.000000 
M10.006952,127.404175 
	C10.045214,143.302689 17.749743,151.008316 33.622498,151.009155 
	C78.120613,151.011490 122.618736,151.017395 167.116852,151.005676 
	C181.518707,151.001877 189.678223,142.813293 189.687622,128.329468 
	C189.708191,96.664146 189.715500,64.998787 189.684082,33.333496 
	C189.670090,19.220161 181.407196,11.000609 167.279785,10.995728 
	C122.448349,10.980239 77.616913,10.983351 32.785477,10.993773 
	C18.009798,10.997209 10.015236,19.054392 10.010143,33.933277 
	C9.999588,64.765305 10.006955,95.597336 10.006952,127.404175 
z"/>
<path fill="#1B3654" opacity="1.000000" stroke="none" 
	d="
M10.006952,126.916771 
	C10.006955,95.597336 9.999588,64.765305 10.010143,33.933277 
	C10.015236,19.054392 18.009798,10.997209 32.785477,10.993773 
	C77.616913,10.983351 122.448349,10.980239 167.279785,10.995728 
	C181.407196,11.000609 189.670090,19.220161 189.684082,33.333496 
	C189.715500,64.998787 189.708191,96.664146 189.687622,128.329468 
	C189.678223,142.813293 181.518707,151.001877 167.116852,151.005676 
	C122.618736,151.017395 78.120613,151.011490 33.622498,151.009155 
	C17.749743,151.008316 10.045214,143.302689 10.006952,126.916771 
M175.629898,22.560066 
	C173.405380,22.043411 171.181686,21.080143 168.956207,21.075935 
	C122.800323,20.988649 76.644234,20.998711 30.488207,21.022442 
	C23.328030,21.026123 19.736523,24.530787 19.722694,31.797806 
	C19.660244,64.623466 19.658361,97.449387 19.724985,130.275024 
	C19.739660,137.505569 23.358980,140.975235 30.561056,140.978638 
	C76.717087,141.000381 122.873154,140.999725 169.029190,140.979599 
	C176.219986,140.976471 179.959274,137.462097 179.974350,130.352036 
	C180.043976,97.526398 180.101105,64.699791 179.844025,31.876032 
	C179.820877,28.918886 177.519165,25.979584 175.629898,22.560066 
z"/>
<path fill="#FEFEFE" opacity="1.000000" stroke="none" 
	d="
M175.952759,22.796032 
	C177.519165,25.979584 179.820877,28.918886 179.844025,31.876032 
	C180.101105,64.699791 180.043976,97.526398 179.974350,130.352036 
	C179.959274,137.462097 176.219986,140.976471 169.029190,140.979599 
	C122.873154,140.999725 76.717087,141.000381 30.561056,140.978638 
	C23.358980,140.975235 19.739660,137.505569 19.724985,130.275024 
	C19.658361,97.449387 19.660244,64.623466 19.722694,31.797806 
	C19.736523,24.530787 23.328030,21.026123 30.488207,21.022442 
	C76.644234,20.998711 122.800323,20.988649 168.956207,21.075935 
	C171.181686,21.080143 173.405380,22.043411 175.952759,22.796032 
M69.556435,81.008484 
	C71.674522,80.635513 73.872253,80.507355 75.897354,79.848557 
	C86.484795,76.404305 92.086624,65.162636 88.592400,54.614864 
	C85.257408,44.547733 73.671150,38.744564 63.678574,42.136349 
	C53.128899,45.717232 47.419739,56.985424 51.131187,67.445831 
	C54.033840,75.626709 60.336723,79.731049 69.556435,81.008484 
M91.398552,93.917862 
	C89.363197,93.228813 87.340958,91.992439 85.290268,91.943314 
	C75.183418,91.701164 64.963928,90.848114 54.985210,91.981102 
	C43.760929,93.255508 36.783768,101.633392 35.247559,112.802902 
	C34.768204,116.288246 34.609241,119.993980 39.020653,120.736771 
	C43.463528,121.484840 44.382511,118.145203 44.904118,114.489182 
	C46.146000,105.784744 51.740051,101.089058 60.663609,101.019112 
	C66.663048,100.972084 72.663300,100.983856 78.662926,101.016151 
	C88.105232,101.066986 93.549332,105.687798 94.879387,115.146790 
	C95.365417,118.603394 96.602295,121.224258 100.319138,120.804039 
	C104.371323,120.345901 104.982384,117.158142 104.527626,113.637466 
	C103.437599,105.198357 99.652252,98.505676 91.398552,93.917862 
M162.206665,51.818310 
	C161.426575,51.558949 160.647461,51.076767 159.866272,51.073421 
	C146.741516,51.017197 133.616302,50.978966 120.491684,51.040405 
	C117.229927,51.055672 114.986382,52.697987 115.116371,56.200283 
	C115.247261,59.726749 117.694107,60.983265 120.895844,60.989254 
	C133.522705,61.012886 146.151001,61.108276 158.775925,60.950050 
	C164.357941,60.880093 165.905319,57.336697 162.206665,51.818310 
M158.053345,70.997490 
	C145.934311,70.997581 133.815262,71.013145 121.696289,70.988075 
	C118.181633,70.980804 115.146347,71.833168 115.136719,75.986984 
	C115.127113,80.138718 118.148071,81.018265 121.669922,81.011360 
	C133.788910,80.987595 145.908020,80.980507 158.026947,81.016869 
	C161.341019,81.026810 164.227982,80.232796 164.539978,76.450058 
	C164.846619,72.732300 162.451263,71.137375 158.053345,70.997490 
M147.490326,101.002762 
	C150.989105,101.002686 154.488449,100.963966 157.986526,101.013290 
	C161.549561,101.063522 164.571198,100.083824 164.546356,95.966820 
	C164.521469,91.845825 161.462387,90.971306 157.919235,90.982719 
	C145.923538,91.021347 133.927597,91.017113 121.931847,90.985039 
	C118.467323,90.975777 115.264717,91.607788 115.144836,95.787453 
	C115.015640,100.292213 118.312096,101.033279 122.002014,101.015129 
	C130.165634,100.974968 138.329605,101.002708 147.490326,101.002762 
z"/>
<path fill="#1C3755" opacity="1.000000" stroke="none" 
	d="
M69.133614,80.992584 
	C60.336723,79.731049 54.033840,75.626709 51.131187,67.445831 
	C47.419739,56.985424 53.128899,45.717232 63.678574,42.136349 
	C73.671150,38.744564 85.257408,44.547733 88.592400,54.614864 
	C92.086624,65.162636 86.484795,76.404305 75.897354,79.848557 
	C73.872253,80.507355 71.674522,80.635513 69.133614,80.992584 
M61.817642,54.521465 
	C58.825451,59.959663 59.088699,64.868698 62.554424,68.260811 
	C65.691765,71.331512 71.236984,72.077644 75.068268,69.793945 
	C79.330589,67.253311 80.684296,63.306370 79.736359,58.631805 
	C78.165634,50.886086 69.557076,48.608223 61.817642,54.521465 
z"/>
<path fill="#1B3654" opacity="1.000000" stroke="none" 
	d="
M91.740234,94.074562 
	C99.652252,98.505676 103.437599,105.198357 104.527626,113.637466 
	C104.982384,117.158142 104.371323,120.345901 100.319138,120.804039 
	C96.602295,121.224258 95.365417,118.603394 94.879387,115.146790 
	C93.549332,105.687798 88.105232,101.066986 78.662926,101.016151 
	C72.663300,100.983856 66.663048,100.972084 60.663609,101.019112 
	C51.740051,101.089058 46.146000,105.784744 44.904118,114.489182 
	C44.382511,118.145203 43.463528,121.484840 39.020653,120.736771 
	C34.609241,119.993980 34.768204,116.288246 35.247559,112.802902 
	C36.783768,101.633392 43.760929,93.255508 54.985210,91.981102 
	C64.963928,90.848114 75.183418,91.701164 85.290268,91.943314 
	C87.340958,91.992439 89.363197,93.228813 91.740234,94.074562 
z"/>
<path fill="#183352" opacity="1.000000" stroke="none" 
	d="
M162.558350,52.013618 
	C165.905319,57.336697 164.357941,60.880093 158.775925,60.950050 
	C146.151001,61.108276 133.522705,61.012886 120.895844,60.989254 
	C117.694107,60.983265 115.247261,59.726749 115.116371,56.200283 
	C114.986382,52.697987 117.229927,51.055672 120.491684,51.040405 
	C133.616302,50.978966 146.741516,51.017197 159.866272,51.073421 
	C160.647461,51.076767 161.426575,51.558949 162.558350,52.013618 
z"/>
<path fill="#183352" opacity="1.000000" stroke="none" 
	d="
M158.498199,70.998955 
	C162.451263,71.137375 164.846619,72.732300 164.539978,76.450058 
	C164.227982,80.232796 161.341019,81.026810 158.026947,81.016869 
	C145.908020,80.980507 133.788910,80.987595 121.669922,81.011360 
	C118.148071,81.018265 115.127113,80.138718 115.136719,75.986984 
	C115.146347,71.833168 118.181633,70.980804 121.696289,70.988075 
	C133.815262,71.013145 145.934311,70.997581 158.498199,70.998955 
z"/>
<path fill="#183352" opacity="1.000000" stroke="none" 
	d="
M146.991882,101.002762 
	C138.329605,101.002708 130.165634,100.974968 122.002014,101.015129 
	C118.312096,101.033279 115.015640,100.292213 115.144836,95.787453 
	C115.264717,91.607788 118.467323,90.975777 121.931847,90.985039 
	C133.927597,91.017113 145.923538,91.021347 157.919235,90.982719 
	C161.462387,90.971306 164.521469,91.845825 164.546356,95.966820 
	C164.571198,100.083824 161.549561,101.063522 157.986526,101.013290 
	C154.488449,100.963966 150.989105,101.002686 146.991882,101.002762 
z"/>
<path fill="#F9F9FA" opacity="1.000000" stroke="none" 
	d="
M62.083294,54.228504 
	C69.557076,48.608223 78.165634,50.886086 79.736359,58.631805 
	C80.684296,63.306370 79.330589,67.253311 75.068268,69.793945 
	C71.236984,72.077644 65.691765,71.331512 62.554424,68.260811 
	C59.088699,64.868698 58.825451,59.959663 62.083294,54.228504 
z"/>
</svg>